<?xml version="1.0" encoding="UTF-8"?>
<!-- Generator: Adobe Illustrator 16.0.0, SVG Export Plug-In . SVG Version: 6.00 Build 0)  -->
<!DOCTYPE svg PUBLIC "-//W3C//DTD SVG 1.1//EN" "http://www.w3.org/Graphics/SVG/1.1/DTD/svg11.dtd">
<svg version="1.1" id="Layer_1" xmlns="http://www.w3.org/2000/svg" xmlns:xlink="http://www.w3.org/1999/xlink" x="0px" y="0px" width="88.121px" height="88.121px" viewBox="0 0 88.121 88.121" enable-background="new 0 0 88.121 88.121" xml:space="preserve">
<path fill="none" d="M44.274,17.824c-14.295,0-25.882,11.589-25.882,25.883c0,14.294,11.587,25.882,25.882,25.882  s25.882-11.588,25.882-25.882C70.156,29.413,58.569,17.824,44.274,17.824z M44.354,67.818c-13.272,0-24.03-10.761-24.03-24.031  c0-13.271,10.758-24.03,24.03-24.03c13.271,0,24.028,10.759,24.028,24.03C68.384,57.058,57.626,67.818,44.354,67.818z"/>
<path fill="rgb(0,126,229)" d="M44.176,1.061L1.607,43.629l42.568,42.57l42.569-42.57L44.176,1.061z M44.274,69.589c-14.295,0-25.882-11.588-25.882-25.882  c0-14.294,11.587-25.883,25.882-25.883s25.882,11.589,25.882,25.883C70.156,58.001,58.569,69.589,44.274,69.589z"/>
<path fill="rgb(0,126,229)" d="M68.384,43.787c0,13.271-10.758,24.031-24.029,24.031c-13.272,0-24.03-10.761-24.03-24.031  c0-13.271,10.758-24.03,24.03-24.03C57.626,19.757,68.384,30.516,68.384,43.787z M35,48.651c-1,0-1.878-0.198-1.942-0.597  C33.051,47.833,33,47.591,33,47.318v-3.94c0-2.882-1.591-4.324-4.261-4.324c-1.371,0-2.739,0.309-3.739,0.927V43h1.472  c0-1,0.132-1.876,0.395-2.054c0.519-0.163,1.119-0.36,1.673-0.36c1.597-0.007,2.46,0.687,2.46,2.312v0.224  c-2-0.015-3.667,0.318-4.762,0.997c-1.093,0.677-1.672,1.656-1.672,2.933c0,0.824,0.253,1.521,0.793,2.09  c0.596,0.632,1.391,0.691,2.401,0.691c1.413,0,2.479-0.834,3.218-1.834h0.053l0.171,2h1.737H35V48.651z M30.872,46.862  c-0.185,0.554-0.533,0.992-1,1.315c-0.47,0.322-1.013,0.484-1.609,0.484c-0.519,0-0.943-0.149-1.262-0.447  c-0.362-0.326-0.503-0.789-0.503-1.385c0-1.642,1.503-2.435,4.503-2.375v1.842C31,46.503,30.929,46.69,30.872,46.862z M44,39.607  c-1-0.376-1.838-0.564-2.911-0.564c-1.704,0-3.202,0.532-4.245,1.597c-1.03,1.037-1.605,2.379-1.605,4.027  c0,1.617,0.449,2.922,1.412,3.912c0.962,0.991,2.22,1.487,3.804,1.487c1.178,0,2.179-0.206,3.017-0.618l-0.324-1.439  c-0.788,0.336-1.574,0.503-2.355,0.503c-1.072,0-1.947-0.353-2.621-1.056c-0.703-0.725-1.055-1.687-1.055-2.887  c0-1.144,0.318-2.084,0.958-2.823c0.682-0.781,1.604-1.172,2.769-1.172c0.334,0,0.657,0.262,0.97,0.312  c0.334,0.121,0.5,1.112,0.5,2.112H44V39.607z M64,48.651c0,0-1.115-0.028-1.355-0.085C62.246,48.466,62,48.257,62,47.938v-4.304  c0-1.647-0.342-2.869-1.151-3.664c-0.61-0.61-1.334-0.916-2.236-0.916c-0.874,0-1.628,0.662-2.296,1.159  C55.832,40.568,55.451,41,55.139,42h-0.044c-0.233-1-0.606-1.56-1.118-1.937c-0.539-0.397-1.161-0.8-1.863-0.8  c-1.463,0-2.571,0.736-3.323,1.736h-0.055l-0.095-1H45v0.492c1,0,1.864,0.195,1.943,0.586C46.949,41.418,47,41.774,47,42.143v5.795  c0,0.319-0.244,0.528-0.644,0.629C46.123,48.623,45,48.651,45,48.651V50h6v-1.349c-1,0-1.123-0.028-1.356-0.085  C49.244,48.466,49,48.257,49,47.938v-4.453c0-0.34,0.014-0.656,0.113-0.947c0.17-0.52,0.439-0.956,0.844-1.311  c0.455-0.397,0.955-0.596,1.517-0.596c0.702,0,0.917,0.27,1.308,0.81c0.368,0.511,0.221,1.203,0.221,2.077V50h4v-1.349  c0,0-1.123-0.028-1.357-0.085c-0.4-0.1-0.645-0.309-0.645-0.628v-4.623c0-0.711,0.489-1.328,0.938-1.854  c0.477-0.554,1.074-0.83,1.775-0.83c1.521,0,2.287,1.083,2.287,3.249V50h4V48.651z"/>
</svg>