<?xml version="1.0" encoding="UTF-8" standalone="no"?>
<!-- Created with Inkscape (http://www.inkscape.org/) -->
<svg xmlns:dc="http://purl.org/dc/elements/1.1/" xmlns:cc="http://creativecommons.org/ns#" xmlns:rdf="http://www.w3.org/1999/02/22-rdf-syntax-ns#" xmlns:svg="http://www.w3.org/2000/svg" xmlns="http://www.w3.org/2000/svg" xmlns:sodipodi="http://sodipodi.sourceforge.net/DTD/sodipodi-0.dtd" xmlns:inkscape="http://www.inkscape.org/namespaces/inkscape" width="260.60037" height="178.36432" viewBox="0 0 260.60037 178.36432" id="svg2" version="1.1" inkscape:version="0.48.4 r9939" sodipodi:docname="color.svg">
  <defs id="defs4"/>
  <sodipodi:namedview id="base" pagecolor="#ffffff" bordercolor="#666666" borderopacity="1.0" inkscape:pageopacity="0.0" inkscape:pageshadow="2" inkscape:zoom="1.728" inkscape:cx="111.55166" inkscape:cy="79.556749" inkscape:document-units="px" inkscape:current-layer="text2990" showgrid="false" showguides="true" inkscape:guide-bbox="true" fit-margin-top="0" fit-margin-left="0" fit-margin-right="0" fit-margin-bottom="0" inkscape:window-width="1366" inkscape:window-height="741" inkscape:window-x="0" inkscape:window-y="-5" inkscape:window-maximized="1">
    <inkscape:grid type="xygrid" id="grid3046" empspacing="5" visible="true" enabled="true" snapvisiblegridlinesonly="true" originx="-54.142838px" originy="-833.75736px"/>
  </sodipodi:namedview>
  <metadata id="metadata7">
    <rdf:RDF>
      <cc:Work rdf:about="">
        <dc:format>image/svg+xml</dc:format>
        <dc:type rdf:resource="http://purl.org/dc/dcmitype/StillImage"/>
        <dc:title/>
      </cc:Work>
    </rdf:RDF>
  </metadata>
  <g inkscape:label="Layer 1" inkscape:groupmode="layer" id="layer1" transform="translate(-54.142838,-40.240506)">
    <g id="g3019" transform="matrix(5.8213333,0,0,5.8213333,-1093.4914,-1265.1383)">
      <g style="font-size:40px;font-style:normal;font-variant:normal;font-weight:normal;font-stretch:normal;line-height:125%;letter-spacing:0px;word-spacing:0px;fill:#536895;fill-opacity:1;stroke:none;font-family:Serif;-inkscape-font-specification:Serif" id="text2985">
        <path d="m 201.0491,248.70871 c -2.60417,0 -3.90625,-1.30208 -3.90625,-3.90625 l 0,-20.56194 5.85938,0 0,19.53125 15.625,0 0,4.93694 -17.57813,0" style="fill:#536895;fill-opacity:1;font-family:Monkirta Pursuit NC;-inkscape-font-specification:Monkirta Pursuit NC" id="path3049" inkscape:connector-curvature="0" sodipodi:nodetypes="cscccccc"/>
      </g>
      <path sodipodi:nodetypes="ccccccssscc" inkscape:connector-curvature="0" id="path3055" style="font-size:28.46161461px;font-style:normal;font-variant:normal;font-weight:normal;font-stretch:normal;line-height:125%;letter-spacing:0px;word-spacing:0px;fill:#ffb300;fill-opacity:1;stroke:none;font-family:Monkirta Pursuit NC;-inkscape-font-specification:Monkirta Pursuit NC" d="m 208.22721,225.9924 0,13.09067 6.94864,0 0,-13.09067 4.16918,0 0,13.96676 c -2e-5,1.85297 -0.9265,2.77946 -2.77946,2.77946 l -9.72809,0 c -1.85297,0 -2.77945,-0.92649 -2.77945,-2.77946 l 0,-13.96676 4.16918,0"/>
      <g style="font-size:5.79042149px;font-style:normal;font-variant:normal;font-weight:normal;font-stretch:normal;line-height:125%;letter-spacing:2.50120091px;word-spacing:0px;fill:#000000;fill-opacity:1;stroke:none;font-family:Monkirta Pursuit NC;-inkscape-font-specification:Monkirta Pursuit NC" id="text2990">
        <path d="m 200.97408,249.79106 c 0.56546,0 0.8482,0.28274 0.8482,0.8482 l 0,4.24103 -1.2723,0 0,-1.69641 -2.12052,0 0,1.69641 -1.27231,0 0,-4.24103 c 0,-0.56546 0.28274,-0.8482 0.84821,-0.8482 l 2.96872,0 m -2.54462,0.8482 0,1.69642 2.12052,0 0,-1.69642 -2.12052,0" style="font-size:8.68563175px;fill:#ffb300;fill-opacity:1" id="path3540" inkscape:connector-curvature="0"/>
        <path d="m 209.83683,249.79106 0,0.8482 -1.69642,0 0,4.24103 -1.27231,0 0,-4.24103 -1.69641,0 0,-0.8482 4.66514,0" style="font-size:8.68563175px;fill:#ffb300;fill-opacity:1" id="path3542" inkscape:connector-curvature="0"/>
        <path d="m 214.45854,249.76985 0,4.26224 2.12052,0 0,-4.26224 1.27231,0 0,4.26224 c -1e-5,0.56547 -0.28274,0.8482 -0.84821,0.8482 l -2.96872,0 c -0.56547,0 -0.84821,-0.28273 -0.84821,-0.8482 l 0,-4.26224 1.27231,0" style="font-size:8.68563175px;fill:#536895;fill-opacity:1" id="path3544" inkscape:connector-curvature="0"/>
        <path d="m 225.86591,254.03209 0,0.8482 -3.81693,0 c -0.56547,0 -0.8482,-0.28273 -0.8482,-0.8482 l 0,-3.39283 c 0,-0.56546 0.28273,-0.8482 0.8482,-0.8482 l 3.81693,0 0,0.8482 -3.39283,0 0,3.39283 3.39283,0" style="font-size:8.68563175px;fill:#536895;fill-opacity:1" id="path3546" inkscape:connector-curvature="0"/>
        <path d="m 230.06352,254.88029 c -0.56547,0 -0.8482,-0.28273 -0.8482,-0.8482 l 0,-4.24103 1.27231,0 0,4.24103 3.39282,0 0,0.8482 -3.81693,0" style="font-size:8.68563175px;fill:#536895;fill-opacity:1" id="path3548" inkscape:connector-curvature="0"/>
        <path d="m 241.04679,249.79106 c 0.56546,0 0.8482,0.28274 0.8482,0.8482 l 0,4.24103 -1.27231,0 0,-1.69641 -2.12051,0 0,1.69641 -1.27231,0 0,-4.24103 c 0,-0.56546 0.28273,-0.8482 0.8482,-0.8482 l 2.96873,0 m -2.54462,0.8482 0,1.69642 2.12051,0 0,-1.69642 -2.12051,0" style="font-size:8.68563175px;fill:#536895;fill-opacity:1" id="path3550" inkscape:connector-curvature="0"/>
      </g>
      <g style="font-size:40px;font-style:normal;font-variant:normal;font-weight:normal;font-stretch:normal;line-height:125%;letter-spacing:0px;word-spacing:0px;fill:#536895;fill-opacity:1;stroke:none;font-family:Serif;-inkscape-font-specification:Serif" id="text2985-14">
        <path d="m 236.04991,243.77177 0,-6.5465 -4.93694,0 0,-4.59338 10.79632,0 0,16.07682 -17.57813,0 c -2.60417,0 -3.90625,-1.30208 -3.90625,-3.90625 l 0,-16.65569 c 0,-2.60414 1.30208,-3.90622 3.90625,-3.90625 l 17.57813,0 0,4.59338 -15.625,0 0,14.93787 9.76562,0" style="fill:#536895;fill-opacity:1;font-family:Monkirta Pursuit NC;-inkscape-font-specification:Monkirta Pursuit NC" id="path3052" inkscape:connector-curvature="0" sodipodi:nodetypes="ccccccssscccccc"/>
      </g>
    </g>
  </g>
</svg>